<?xml version="1.0" encoding="utf-8"?>
<!-- Generator: Adobe Illustrator 19.0.0, SVG Export Plug-In . SVG Version: 6.00 Build 0)  -->
<svg version="1.2" baseProfile="tiny" id="Layer_2" xmlns="http://www.w3.org/2000/svg" xmlns:xlink="http://www.w3.org/1999/xlink"
	 x="0px" y="0px" width="185px" height="185px" viewBox="0 0 185 185" xml:space="preserve">
<path id="XMLID_28_" fill-rule="evenodd" fill="#DCDDDE" d="M94.1,177.4c20.5,0,37.1,1.3,37.1,2.9c0,1.6-16.6,2.9-37.1,2.9
	s-37.1-1.3-37.1-2.9C56.9,178.7,73.6,177.4,94.1,177.4z"/>
<g id="XMLID_36_">
	<linearGradient id="XMLID_35_" gradientUnits="userSpaceOnUse" x1="67.6918" y1="170.4536" x2="67.6918" y2="131.9594">
		<stop  offset="0.5" style="stop-color:#EC87B7"/>
		<stop  offset="0.5" style="stop-color:#F6B1CF"/>
	</linearGradient>
	<path id="XMLID_1074_" fill="url(#XMLID_35_)" stroke="#000000" stroke-width="3" stroke-miterlimit="10" d="M79.2,138v-1.5
		c0-4.3-3-4.5-3.7-4.5H60.7c-2.5,0.1-4.4,2.1-4.5,4.5v29.3c0.1,2.5,2.1,4.5,4.5,4.7h14.8c0.7,0,3.7-0.3,3.7-4.7v-3.6
		C79.3,162.2,79.2,138,79.2,138z"/>
	<circle id="XMLID_1073_" fill="#FFFFFF" stroke="#000000" stroke-width="2" stroke-miterlimit="10" cx="67.7" cy="160.8" r="3.3"/>
	<g id="XMLID_1055_">
		<path id="XMLID_1075_" fill="#FFFFFF" stroke="#000000" stroke-width="3" stroke-miterlimit="10" d="M117.2,170.5
			c3.4,0,6.1-2.8,6.1-6.2c0-1.6-0.6-3-1.5-4.1c1.9-1.1,3.2-3.1,3.2-5.5c0-1.6-0.6-3-1.5-4.1c1.9-1.1,3.2-3.1,3.2-5.5
			c0-1.6-0.6-3-1.5-4.1c1.9-1.1,3.2-3.1,3.2-5.5c0-3.4-2.7-6.2-6.1-6.2l-17.1,0c-0.6,0-1.1-0.6-0.9-1.2c0.8-2.6,2.3-8.9-0.4-14.1
			c-4.9-9.6-11.7-5.4-12.6-3.1c1,17.9-11.4,25.3-11.9,25.5v31.8C86.1,173.4,117.2,170.5,117.2,170.5z"/>
		<g id="XMLID_1054_">
			
				<line id="XMLID_1088_" fill="#FFDAA0" stroke="#000000" stroke-width="3" stroke-linecap="round" stroke-linejoin="round" stroke-miterlimit="10" x1="108.1" y1="141" x2="125.7" y2="141"/>
			
				<line id="XMLID_1087_" fill="#FFDAA0" stroke="#000000" stroke-width="3" stroke-linecap="round" stroke-linejoin="round" stroke-miterlimit="10" x1="108.1" y1="150.6" x2="123.3" y2="150.6"/>
			
				<line id="XMLID_1085_" fill="#FFDAA0" stroke="#000000" stroke-width="3" stroke-linecap="round" stroke-linejoin="round" stroke-miterlimit="10" x1="108.1" y1="160.1" x2="122.3" y2="160.1"/>
		</g>
	</g>
</g>
<g id="XMLID_37_">
	<g id="XMLID_27_">
		<g id="XMLID_30_">
			<path id="XMLID_61_" fill="#41ABE1" d="M47,117.8c-5.1,0-10.1-1.6-14.2-4.6c-8.5-6.2-12-17-8.8-27c3.2-10,12.5-16.7,23-16.7
				s19.7,6.7,23,16.7c3.2,10-0.3,20.9-8.8,27C57.1,116.2,52.1,117.8,47,117.8z"/>
			<path id="XMLID_40_" fill="#388BB5" d="M47,70.9c9.8,0,18.5,6.3,21.6,15.7c3,9.3-0.3,19.6-8.2,25.4c-4,2.9-8.7,4.3-13.3,4.3
				s-9.4-1.4-13.3-4.3c-7.9-5.8-11.3-16-8.2-25.4C28.5,77.2,37.2,70.9,47,70.9 M47,67.9c-11.2,0-21,7.1-24.4,17.7
				c-3.4,10.6,0.3,22.1,9.3,28.7c4.4,3.2,9.6,4.9,15.1,4.9c5.5,0,10.7-1.7,15.1-4.9c9-6.6,12.8-18.1,9.3-28.7
				C68,75.1,58.2,67.9,47,67.9L47,67.9z"/>
		</g>
	</g>
	<path id="XMLID_330_" fill="#FFFFFF" d="M59.4,87.1c-0.8,0.4-1.7,0.6-2.7,0.7c1-0.6,1.7-1.5,2-2.6c-0.9,0.5-1.9,0.9-3,1.1
		c-0.8-0.9-2.1-1.5-3.4-1.5c-2.6,0-4.7,2.1-4.7,4.7c0,0.4,0,0.7,0.1,1.1c-3.9-0.2-7.3-2-9.6-4.9c-0.4,0.7-0.6,1.5-0.6,2.3
		c0,1.6,0.8,3,2.1,3.9c-0.8,0-1.5-0.2-2.1-0.6c0,0,0,0,0,0.1c0,2.3,1.6,4.1,3.7,4.6c-0.4,0.1-0.8,0.2-1.2,0.2c-0.3,0-0.6,0-0.9-0.1
		c0.6,1.8,2.3,3.2,4.4,3.2c-1.6,1.2-3.6,2-5.8,2c-0.4,0-0.7,0-1.1-0.1c2.1,1.3,4.5,2.1,7.1,2.1c8.6,0,13.2-7.1,13.2-13.2
		c0-0.2,0-0.4,0-0.6C57.9,88.8,58.7,88,59.4,87.1z"/>
</g>
<g id="XMLID_48_">
	<g id="XMLID_38_">
		<g id="XMLID_39_">
			<path id="XMLID_69_" fill="#F1574A" d="M77.3,52.5c-5.1,0-10.1-1.6-14.2-4.6c-8.5-6.2-12-17-8.8-27c3.2-10,12.5-16.7,23-16.7
				s19.7,6.7,23,16.7c3.2,10-0.3,20.9-8.8,27C87.3,50.9,82.4,52.5,77.3,52.5z"/>
			<path id="XMLID_62_" fill="#C73B2F" d="M77.3,5.7c9.8,0,18.5,6.3,21.6,15.7c3,9.3-0.3,19.6-8.2,25.4c-4,2.9-8.7,4.3-13.3,4.3
				s-9.4-1.4-13.3-4.3c-7.9-5.8-11.3-16-8.2-25.4C58.7,12,67.4,5.7,77.3,5.7 M77.3,2.7c-11.2,0-21,7.1-24.4,17.7
				c-3.4,10.6,0.3,22.1,9.3,28.7c4.4,3.2,9.6,4.9,15.1,4.9c5.5,0,10.7-1.7,15.1-4.9c9-6.6,12.8-18.1,9.3-28.7
				C98.2,9.8,88.4,2.7,77.3,2.7L77.3,2.7z"/>
		</g>
	</g>
	<path id="XMLID_41_" fill="#FFFFFF" d="M73.5,38.6c-2.7,0-4.6-1.7-4.6-3.8c0-2,2.4-3.7,5.1-3.7c0.6,0,1.2,0.1,1.7,0.3
		c1.5,1,2.5,1.6,2.8,2.8c0.1,0.2,0.1,0.5,0.1,0.7C78.6,37,77.3,38.6,73.5,38.6 M74.2,26.6c-1.8-0.1-3.5-2-3.8-4.4
		c-0.3-2.4,0.9-4.2,2.7-4.1c1.8,0.1,3.5,2,3.8,4.3C77.2,24.7,76,26.6,74.2,26.6 M78,30.1c-0.6-0.4-1.8-1.5-1.8-2.2
		c0-0.8,0.2-1.1,1.3-2c1.2-0.9,2-2.2,2-3.7c0-1.8-0.8-3.5-2.3-4.1h2.2L81,17h-7c-3.1,0-6.1,2.4-6.1,5.1c0,2.8,2.1,5.1,5.3,5.1
		c0.2,0,0.4,0,0.7,0c-0.2,0.4-0.4,0.8-0.4,1.3c0,0.8,0.4,1.4,1,1.9c-0.4,0-0.8,0-1.2,0c-3.9,0-6.9,2.5-6.9,5.1
		c0,2.5,3.3,4.1,7.2,4.1c4.4,0,6.9-2.5,6.9-5.1C80.4,32.6,79.8,31.4,78,30.1 M88.2,26.8h-2.7V24h-2.2v2.7h-2.7V29h2.7v2.7h2.2V29
		h2.7V26.8z"/>
</g>
<g id="XMLID_49_">
	<g id="XMLID_33_">
		<g id="XMLID_34_">
			<path id="XMLID_60_" fill="#4F76BB" d="M142.1,94.8c-5.1,0-10.1-1.6-14.2-4.6c-8.5-6.2-12-17-8.8-27c3.2-10,12.5-16.7,23-16.7
				s19.7,6.7,23,16.7c3.2,10-0.3,20.9-8.8,27C152.1,93.2,147.2,94.8,142.1,94.8z"/>
			<path id="XMLID_55_" fill="#274C8B" d="M142.1,48c9.8,0,18.5,6.3,21.6,15.7c3,9.3-0.3,19.6-8.2,25.4c-4,2.9-8.7,4.3-13.3,4.3
				s-9.4-1.4-13.3-4.3c-7.9-5.8-11.3-16-8.2-25.4C123.6,54.3,132.3,48,142.1,48 M142.1,45c-11.2,0-21,7.1-24.4,17.7
				c-3.4,10.6,0.3,22.1,9.3,28.7c4.4,3.2,9.6,4.9,15.1,4.9s10.7-1.7,15.1-4.9c9-6.6,12.8-18.1,9.3-28.7
				C163.1,52.1,153.3,45,142.1,45L142.1,45z"/>
		</g>
	</g>
	<path id="XMLID_32_" fill-rule="evenodd" fill="#FFFFFF" d="M145.5,63.3c0.7,0,1.5,0,2.2,0c0.1,0,0.2,0,0.3,0v-3.9
		c-0.4,0-0.8-0.1-1.2-0.1c-0.8,0-1.5-0.1-2.3-0.1c-1.2,0-2.3,0.3-3.2,1c-1.1,0.8-1.7,1.9-2,3.2c-0.1,0.5-0.1,1.1-0.1,1.7
		c0,0.9,0,1.7,0,2.6v0.3h-3.7v4.3h3.7v10.9h4.5V72.5h3.7c0.2-1.4,0.4-2.9,0.6-4.4c-0.3,0-0.6,0-0.8,0c-1,0-3.5,0-3.5,0s0-2.2,0-3.1
		C143.7,63.7,144.5,63.4,145.5,63.3z"/>
</g>
<line id="XMLID_260_" fill="#91D8F7" stroke="#000000" stroke-width="3" stroke-linecap="round" stroke-miterlimit="10" x1="81.5" y1="92.2" x2="90.3" y2="91.1"/>
<line id="XMLID_56_" fill="#91D8F7" stroke="#000000" stroke-width="3" stroke-linecap="round" stroke-miterlimit="10" x1="96.8" y1="77.3" x2="88.8" y2="69.4"/>
<line id="XMLID_57_" fill="#91D8F7" stroke="#000000" stroke-width="3" stroke-linecap="round" stroke-miterlimit="10" x1="109.7" y1="53.9" x2="116.1" y2="48"/>
</svg>
