<?xml version="1.0" encoding="utf-8"?>
<!-- Generator: Adobe Illustrator 15.0.0, SVG Export Plug-In  -->
<!DOCTYPE svg PUBLIC "-//W3C//DTD SVG 1.1//EN" "http://www.w3.org/Graphics/SVG/1.1/DTD/svg11.dtd" [
	<!ENTITY ns_flows "http://ns.adobe.com/Flows/1.0/">
]>
<svg version="1.1"
	 xmlns="http://www.w3.org/2000/svg" xmlns:xlink="http://www.w3.org/1999/xlink" xmlns:a="http://ns.adobe.com/AdobeSVGViewerExtensions/3.0/"
	 x="0px" y="0px" width="59px" height="50px" viewBox="0 0 59 50" enable-background="new 0 0 59 50" xml:space="preserve">
<defs>
</defs>
<polygon points="48.7978516,9.8491211 48.7978516,0 46.1113281,0 46.1113281,9.8491211 36.2626953,9.8491211 36.2626953,12.5351563 
	46.1113281,12.5351563 46.1113281,22.3847656 48.7978516,22.3847656 48.7978516,12.5351563 58.6474609,12.5351563 
	58.6474609,9.8491211 "/>
<path d="M32.1816406,0c0,0-11.5673828,0-15.4238281,0C9.84375,0,3.3359375,5.3378906,3.3359375,11.4052734
	c0,6.2011719,4.7138672,11.2548828,11.7480469,11.2548828c0.4892578,0,0.9648438,0.0166016,1.4306641-0.0175781
	c-0.4570313,0.8740234-0.7832031,1.8710938-0.7832031,2.8925781c0,1.7236328,0.9267578,3.1269531,2.0996094,4.2675781
	c-0.8857422,0-1.7421875,0.0273438-2.6738281,0.0273438C6.5917969,29.8300781,0,35.2871094,0,40.9443359
	C0,46.5136719,7.2265625,50,15.7910156,50c9.7646484,0,15.1572266-5.5390625,15.1572266-11.1103516
	c0-4.4667969-1.3173828-7.1425781-5.3925781-10.0244141c-1.3935547-0.9863281-4.0595703-3.3867188-4.0595703-4.796875
	c0-1.6533203,0.4716797-2.4677734,2.9599609-4.4121094c2.5507813-1.9941406,4.3564453-4.7988281,4.3564453-8.0585938
	c0-3.878418-1.7285156-8.0161133-4.9726563-8.9116211h4.890625L32.1816406,0z M26.7939453,37.9287109
	c0.1230469,0.5166016,0.1894531,1.046875,0.1894531,1.5898438c0,4.5019531-2.9003906,8.0195313-11.2236328,8.0195313
	c-5.9199219,0-10.1953125-3.7470703-10.1953125-8.2490234c0-4.4111328,5.3027344-8.0839844,11.2226563-8.0205078
	c1.3818359,0.0146484,2.6699219,0.2373047,3.8388672,0.6152344C23.8388672,34.1181641,26.1445313,35.3808594,26.7939453,37.9287109z
	 M17.3164063,21.1386719c-3.9746094-0.1191406-7.7509766-4.4453125-8.4365234-9.6630859
	c-0.6855469-5.21875,1.9785156-9.2128906,5.9511719-9.0942383c3.9726563,0.1196289,7.7509766,4.3061523,8.4365234,9.5239258
	C23.953125,17.1240234,21.2880859,21.2568359,17.3164063,21.1386719z"/>
</svg>
