<svg xmlns="http://www.w3.org/2000/svg" width="512" height="512" viewBox="0 0 512 512"><path d="m220 299c-8-3-16-4-25-4-38-1-72 23-72 52 0 29 27 53 66 53 53 0 72-23 72-52 0-3 0-7-1-10-4-17-19-25-40-39z m17-129c-4-34-29-61-54-62-26-1-43 25-39 59 5 34 29 61 55 62 25 1 43-26 38-59z m177-119l-316 0c-26 0-47 21-47 47l0 316c0 26 21 47 47 47l316 0c26 0 47-21 47-47l0-316c0-26-21-47-47-47z m-225 365c-56 0-102-23-102-59 0-36 42-71 98-71 6 0 11-1 17-1-8-7-14-16-14-27 0-7 2-13 5-18-3 0-6 0-9 0-45 0-76-31-76-71 0-39 42-71 87-71 25 0 100 0 100 0l-23 16-31 0c21 8 32 31 32 56 0 21-12 37-28 50-16 12-19 18-19 28 0 9 17 25 26 31 26 19 35 36 35 65 0 36-35 72-98 72z m176-231l0 57 54 0 0 24-54 0 0 58-26 0 0-58-55 0 0-24 55 0 0-57z" stroke="none" stroke-width="1px"></path></svg>