<svg xmlns="http://www.w3.org/2000/svg" width="512" height="512" viewBox="0 0 512 512"><path d="m414 51l-316 0c-26 0-47 21-47 47l0 316c0 26 21 47 47 47l316 0c26 0 47-21 47-47l0-316c0-26-21-47-47-47z m-238 345l-62 0 0-189 62 0z m-31-214l0 0c-21 0-35-15-35-33 0-19 14-33 35-33 22 0 35 15 35 33 0 18-13 33-35 33z m257 214l-63 0 0-101c0-26-9-43-31-43-18 0-28 12-32 23-2 4-2 10-2 15l0 106-63 0c0 0 1-171 0-189l63 0 0 27c8-13 23-31 56-31 41 0 72 27 72 85z m-128-161l0-1c-1 0-1 0-1 1z" stroke="none" stroke-width="1px"></path></svg>